#!OML:ASF H:\Terrain\Patient Classification 1\Walking\liu\liu.ASF
:FULLY-SPECIFIED
:DEGREES
437
root 10.566300 17.222601 25.774099 6.865140 -2.160400 2.423950
lowerback -3.388890 1.026660 -1.771555
upperback -1.374935 1.475615 0.120445
thorax 0.382428 0.749770 1.222320
lowerneck -9.040650 -2.800120 -7.157550
upperneck 11.167150 -3.494250 6.387850
head 5.605950 -1.467315 3.030685
rclavicle -0.000000 -0.000000
rhumerus -22.165600 4.775285 -45.002499
rradius 14.733150
rwrist -6.161500
rhand -13.784800 -13.410500
rfingers 3.562510
rthumb -0.485115 -28.399300
lclavicle -0.000000 -0.000000
lhumerus -20.410500 -1.640875 44.397549
lradius 9.536450
lwrist -2.748625
lhand -5.966350 -12.353550
lfingers 3.562510
lthumb 7.060900 2.396500
rfemur -0.907680 -0.952495 7.749000
rtibia 27.517651
rfoot 6.895750 -1.101880
rtoes -5.409450
lfemur -15.372950 2.188535 -14.187700
ltibia 15.723250
lfoot -3.874375 3.178245
ltoes 2.230065
438
root 10.553300 17.239599 25.802401 7.614060 -1.877160 0.611635
lowerback -3.241985 1.000000 -0.966250
upperback -1.530840 1.382570 0.428975
thorax 0.171025 0.704240 1.072940
lowerneck -9.110650 -2.803865 -7.318150
upperneck 11.092150 -3.458860 6.481050
head 5.596550 -1.451940 3.097380
rclavicle -0.000000 0.000000
rhumerus -22.114100 4.764515 -44.866501
rradius 14.794550
rwrist -5.936000
rhand -15.162800 -11.774900
rfingers 3.562510
rthumb -1.815955 -26.749300
lclavicle -0.000000 0.000000
lhumerus -19.846701 -1.992040 44.629101
lradius 9.497950
lwrist -2.578435
lhand -5.822450 -12.037550
lfingers 3.562510
lthumb 7.199600 2.702710
rfemur -2.420910 -0.717715 9.121000
rtibia 28.543850
rfoot 6.121200 -2.378685
rtoes -4.588245
lfemur -15.780900 2.133995 -13.123500
ltibia 15.546100
lfoot -3.616185 3.161810
ltoes 0.934040
439
root 10.543300 17.254299 25.847000 7.930480 -1.789890 -0.631935
lowerback -2.430970 0.888680 -0.489525
upperback -2.229550 1.207550 0.648925
thorax -0.980420 0.628230 0.976985
lowerneck -8.359850 -2.587765 -7.284850
upperneck 11.421850 -3.288570 6.445800
head 5.539000 -1.403080 3.122110
rclavicle 0.000000 0.000000
rhumerus -23.272499 5.009700 -45.240150
rradius 15.027550
rwrist -6.019300
rhand -18.143450 -8.184150
rfingers 3.562510
rthumb -4.693310 -23.069651
lclavicle 0.000000 0.000000
lhumerus -20.428600 -2.100035 44.692051
lradius 9.523550
lwrist -2.530285
lhand -6.690400 -12.604350
lfingers 3.562510
lthumb 6.363050 2.191750
rfemur -3.715060 -0.498581 10.050650
rtibia 29.570049
rfoot 5.233950 -3.252865
rtoes -4.856915
lfemur -15.985500 2.137490 -12.381050
ltibia 15.555450
lfoot -3.556425 3.195615
ltoes 0.164099
440
root 10.573900 17.286100 26.012100 7.490870 -1.571200 0.725360
lowerback -3.001060 0.703040 -1.088520
upperback -1.492470 0.989310 0.506955
thorax 0.089646 0.509935 1.190530
lowerneck -9.575500 -2.748845 -7.090500
upperneck 11.517300 -3.369335 6.280850
head 5.815400 -1.402715 3.011745
rclavicle 0.000000 0.000000
rhumerus -22.304750 5.501100 -45.285400
rradius 15.172850
rwrist -6.527300
rhand -17.421749 -10.967900
rfingers 3.562510
rthumb -3.996875 -25.882299
lclavicle 0.000000 0.000000
lhumerus -18.821251 -2.239330 44.710152
lradius 9.401550
lwrist -2.478550
lhand -6.639100 -12.392900
lfingers 3.562510
lthumb 6.412500 2.400105
rfemur -4.004430 -0.894040 9.181950
rtibia 30.270849
rfoot 4.390055 -3.259870
rtoes -5.017350
lfemur -15.209600 2.103005 -13.204500
ltibia 15.299250
lfoot -3.822370 3.089100
ltoes -0.578440
441
root 10.582500 17.307501 26.087400 7.895750 -1.231660 -0.056689
lowerback -2.632410 0.611115 -0.683660
upperback -1.930865 0.843490 0.631205
thorax -0.549815 0.443900 1.066610
lowerneck -8.969850 -2.411790 -6.647100
upperneck 11.619150 -2.998840 5.864600
head 5.641550 -1.262590 2.837315
rclavicle -0.000000 0.000000
rhumerus -23.055349 5.673950 -45.489700
rradius 15.418900
rwrist -6.730950
rhand -16.626101 -12.325650
rfingers 3.562510
rthumb -3.228850 -27.266399
lclavicle -0.000000 0.000000
lhumerus -19.039249 -2.348715 44.703300
lradius 9.595950
lwrist -2.710030
lhand -5.967150 -11.833000
lfingers 3.562510
lthumb 7.060150 2.917085
rfemur -5.045850 -0.964895 9.775350
rtibia 30.827400
rfoot 3.946260 -3.942475
rtoes -3.990295
lfemur -15.130550 2.105375 -12.797250
ltibia 14.854000
lfoot -3.617550 2.948660
ltoes -1.116265
442
root 10.659800 17.366800 26.386400 6.872620 -1.085190 2.310380
lowerback -3.074210 0.398524 -1.549815
upperback -1.781860 0.608300 0.303926
thorax -0.152692 0.330388 1.216820
lowerneck -8.443000 -2.263150 -6.729150
upperneck 11.501250 -2.889835 6.114450
head 5.487300 -1.206945 2.960970
rclavicle 0.000000 0.000000
rhumerus -23.569851 5.781400 -45.539200
rradius 15.537900
rwrist -6.527700
rhand -16.078300 -12.849700
rfingers 3.562510
rthumb -2.699945 -27.805300
lclavicle 0.000000 0.000000
lhumerus -19.102150 -2.385900 44.703300
lradius 9.770000
lwrist -2.794645
lhand -5.665650 -11.660800
lfingers 3.562510
lthumb 7.350650 3.068600
rfemur -4.263745 -1.630825 7.948250
rtibia 30.891251
rfoot 3.132310 -3.379710
rtoes -3.728960
lfemur -13.371300 2.264545 -14.306850
ltibia 14.160350
lfoot -4.215030 2.636395
ltoes -0.987500
443
root 10.691100 17.392300 26.555700 6.266290 -0.993455 3.418130
lowerback -3.150120 0.298405 -2.006410
upperback -1.424585 0.509095 0.184822
thorax 0.257240 0.271926 1.350000
lowerneck -8.925650 -2.271560 -6.679000
upperneck 11.571850 -2.820900 5.975800
head 5.592200 -1.172915 2.912245
rclavicle -0.000000 -0.000000
rhumerus -23.155701 5.707300 -45.289799
rradius 15.643600
rwrist -6.098400
rhand -15.878600 -13.980750
rfingers 3.562510
rthumb -2.507155 -28.941099
lclavicle -0.000000 -0.000000
lhumerus -18.228600 -2.960690 44.945900
lradius 9.840000
lwrist -2.378970
lhand -5.726900 -11.604600
lfingers 3.562510
lthumb 7.291650 3.129035
rfemur -4.337205 -1.831100 7.192500
rtibia 31.125099
rfoot 2.498885 -3.197235
rtoes -4.807800
lfemur -12.403300 2.306050 -14.947500
ltibia 13.697000
lfoot -4.434715 2.509855
ltoes 0.318904
444
root 10.704100 17.429399 26.701000 6.040420 -0.755831 3.102700
lowerback -3.220560 0.273836 -1.794470
upperback -1.168400 0.470562 0.250686
thorax 0.566495 0.241589 1.299940
lowerneck -9.659750 -2.492700 -6.889150
upperneck 11.783250 -3.022670 6.086800
head 5.861200 -1.250670 2.970060
rclavicle -0.000000 0.000000
rhumerus -22.719900 5.567000 -45.068901
rradius 15.687050
rwrist -6.042650
rhand -16.216049 -14.318500
rfingers 3.562510
rthumb -2.832985 -29.270651
lclavicle -0.000000 0.000000
lhumerus -17.323650 -3.506910 45.112850
lradius 9.798150
lwrist -2.366845
lhand -5.812450 -11.604250
lfingers 3.562510
lthumb 7.209250 3.135340
rfemur -4.735215 -1.787735 7.448050
rtibia 31.233999
rfoot 1.848345 -3.383035
rtoes -6.084600
lfemur -11.855350 2.289705 -14.751300
ltibia 13.355050
lfoot -4.540470 2.428155
ltoes 1.289390
445
root 10.710700 17.426500 26.813299 6.000270 -0.458248 2.163550
lowerback -3.017170 0.190847 -1.302985
upperback -1.682100 0.318187 0.411178
thorax -0.060403 0.179957 1.172475
lowerneck -8.035600 -2.179505 -6.840950
upperneck 11.658000 -2.746070 5.894100
head 5.439550 -1.189815 2.923855
rclavicle -0.000000 0.000000
rhumerus -23.815599 5.419550 -45.118500
rradius 15.878300
rwrist -5.954700
rhand -15.642350 -13.874800
rfingers 3.562510
rthumb -2.279020 -28.840300
lclavicle -0.000000 0.000000
lhumerus -17.927151 -3.561045 45.158401
lradius 9.847250
lwrist -2.819840
lhand -5.683100 -11.726400
lfingers 3.562510
lthumb 7.333850 3.004195
rfemur -5.362100 -1.630105 8.111350
rtibia 31.529800
rfoot 0.903005 -3.681290
rtoes -6.125650
lfemur -11.535250 2.397850 -14.281350
ltibia 13.293850
lfoot -4.724320 2.390175
ltoes 0.200790
446
root 10.724800 17.463499 26.915701 6.138830 -0.162077 1.438650
lowerback -3.064170 0.060524 -0.952020
upperback -1.609060 0.126796 0.576205
thorax 0.053909 0.078850 1.134575
lowerneck -8.272150 -1.992970 -6.307100
upperneck 11.758850 -2.442785 5.287050
head 5.445550 -1.066140 2.647420
rclavicle 0.000000 0.000000
rhumerus -23.685049 5.386500 -44.858799
rradius 16.134100
rwrist -5.776950
rhand -16.806150 -13.843750
rfingers 3.562510
rthumb -3.402655 -28.779051
lclavicle 0.000000 0.000000
lhumerus -17.202950 -3.648680 45.106602
lradius 9.818100
lwrist -3.017665
lhand -5.476150 -11.798150
lfingers 3.562510
lthumb 7.533200 2.917705
rfemur -6.001650 -1.560345 8.622150
rtibia 31.742750
rfoot -0.004903 -3.761340
rtoes -5.390400
lfemur -11.544250 2.223610 -13.831700
ltibia 13.376900
lfoot -4.925780 2.351235
ltoes 1.228805
447
root 10.738100 17.462500 27.003000 6.357720 0.120729 1.221560
lowerback -3.128825 -0.067071 -0.856420
upperback -1.510545 -0.048209 0.675710
thorax 0.200670 -0.011720 1.172700
lowerneck -8.654650 -2.027950 -6.441550
upperneck 11.670550 -2.470485 5.550000
head 5.502650 -1.049865 2.763985
rclavicle 0.000000 -0.000000
rhumerus -23.448750 5.306800 -44.564751
rradius 16.318150
rwrist -5.631250
rhand -16.912849 -13.442500
rfingers 3.562510
rthumb -3.505655 -28.374451
lclavicle 0.000000 -0.000000
lhumerus -16.432751 -3.767680 45.105251
lradius 9.911150
lwrist -3.093975
lhand -5.429650 -11.821600
lfingers 3.562510
lthumb 7.578000 2.890895
rfemur -6.859300 -1.603585 8.839750
rtibia 32.037048
rfoot -0.651620 -3.767485
rtoes -6.107100
lfemur -11.487150 2.184965 -13.747700
ltibia 13.452700
lfoot -5.159100 2.362175
ltoes 0.023260
448
root 10.749900 17.455000 27.093300 6.393210 0.290696 1.365100
lowerback -3.106305 -0.210418 -0.963970
upperback -1.244930 -0.233689 0.676420
thorax 0.472164 -0.109685 1.221160
lowerneck -9.725650 -2.090600 -6.217700
upperneck 11.891100 -2.517275 5.568800
head 5.797800 -1.021850 2.736805
rclavicle 0.000000 0.000000
rhumerus -22.842051 5.269450 -44.464249
rradius 16.339300
rwrist -5.620800
rhand -16.176451 -13.470550
rfingers 3.562510
rthumb -2.794715 -28.423700
lclavicle 0.000000 0.000000
lhumerus -15.331600 -3.906475 44.906651
lradius 10.009400
lwrist -2.974980
lhand -5.016650 -11.635000
lfingers 3.562510
lthumb 7.975750 3.046595
rfemur -7.679450 -1.613130 8.853950
rtibia 32.256699
rfoot -1.122130 -3.869720
rtoes -7.711150
lfemur -11.340500 2.076265 -13.831750
ltibia 13.594700
lfoot -5.437200 2.510280
ltoes -1.030245
449
root 10.753000 17.456301 27.191299 6.164230 0.314681 1.439410
lowerback -2.914660 -0.196122 -0.982950
upperback -1.227475 -0.216232 0.654480
thorax 0.382578 -0.100028 1.211105
lowerneck -9.718850 -2.133775 -6.189900
upperneck 12.006300 -2.566610 5.458300
head 5.843600 -1.056165 2.685605
rclavicle 0.000000 -0.000000
rhumerus -23.002501 5.138500 -44.435349
rradius 16.560801
rwrist -6.022250
rhand -15.400750 -14.113500
rfingers 3.562510
rthumb -2.045725 -29.083700
lclavicle 0.000000 -0.000000
lhumerus -14.799000 -4.613710 45.012501
lradius 10.019350
lwrist -2.664340
lhand -4.667965 -11.494700
lfingers 3.562510
lthumb 8.311500 3.159360
rfemur -8.263000 -1.434990 8.933450
rtibia 32.420448
rfoot -1.801105 -4.023515
rtoes -8.347600
lfemur -11.016050 1.923520 -13.811400
ltibia 13.533000
lfoot -5.681700 2.622635
ltoes -0.952695
450
root 10.756900 17.460199 27.284401 5.989900 0.385594 0.901557
lowerback -2.689010 -0.220555 -0.697130
upperback -1.352940 -0.266299 0.732860
thorax 0.129445 -0.122684 1.129450
lowerneck -9.210850 -2.057435 -6.131300
upperneck 11.976500 -2.499685 5.328100
head 5.716100 -1.049320 2.633260
rclavicle 0.000000 -0.000000
rhumerus -23.410101 5.135800 -44.452599
rradius 16.860300
rwrist -6.280700
rhand -15.375550 -14.220900
rfingers 3.562510
rthumb -2.021405 -29.191549
lclavicle 0.000000 -0.000000
lhumerus -14.691550 -5.356950 45.184052
lradius 10.123750
lwrist -2.498215
lhand -5.095150 -11.655850
lfingers 3.562510
lthumb 7.900200 3.031740
rfemur -8.840050 -1.163225 9.348550
rtibia 32.510899
rfoot -2.692390 -4.164875
rtoes -8.842600
lfemur -10.704950 1.844525 -13.470850
ltibia 13.388350
lfoot -5.874850 2.629080
ltoes -0.670655
